  0
SECTION
  2
HEADER
  9
$ACADVER
  1
AC1004
  9
$INSBASE
 10
0.0
 20
0.0
  9
$EXTMIN
 10
83.058
 20
57.251445
  9
$EXTMAX
 10
104.28798
 20
88.061307
  9
$LIMMIN
 10
0.0
 20
0.0
  9
$LIMMAX
 10
0.0
 20
0.0
  9
$VIEWCTR
 10
6.591288
 20
4.579184
  9
$VIEWSIZE
 40
9.158369
  9
$SNAPMODE
 70
     0
  9
$SNAPUNIT
 10
1.0
 20
1.0
  9
$SNAPBASE
 10
0.0
 20
0.0
  9
$SNAPANG
 50
0.0
  9
$SNAPSTYLE
 70
     0
  9
$SNAPISOPAIR
 70
     0
  9
$GRIDMODE
 70
     0
  9
$GRIDUNIT
 10
0.0
 20
0.0
  9
$ORTHOMODE
 70
     0
  9
$REGENMODE
 70
     1
  9
$FILLMODE
 70
     1
  9
$QTEXTMODE
 70
     0
  9
$DRAGMODE
 70
     2
  9
$LTSCALE
 40
1.0
  9
$OSMODE
 70
     0
  9
$ATTMODE
 70
     1
  9
$TEXTSIZE
 40
0.2
  9
$TRACEWID
 40
0.05
  9
$TEXTSTYLE
  7
STANDARD
  9
$CLAYER
  8
0
  9
$CELTYPE
  6
CONTINUOUS
  9
$CECOLOR
 62
   256
  9
$DIMSCALE
 40
1.0
  9
$DIMASZ
 40
0.18
  9
$DIMEXO
 40
0.0625
  9
$DIMDLI
 40
0.38
  9
$DIMRND
 40
0.0
  9
$DIMDLE
 40
0.0
  9
$DIMEXE
 40
0.18
  9
$DIMTP
 40
0.0
  9
$DIMTM
 40
0.0
  9
$DIMTXT
 40
0.18
  9
$DIMCEN
 40
0.09
  9
$DIMTSZ
 40
0.0
  9
$DIMTOL
 70
     0
  9
$DIMLIM
 70
     0
  9
$DIMTIH
 70
     1
  9
$DIMTOH
 70
     1
  9
$DIMSE1
 70
     0
  9
$DIMSE2
 70
     0
  9
$DIMTAD
 70
     0
  9
$DIMZIN
 70
     0
  9
$DIMBLK
  1

  9
$DIMASO
 70
     1
  9
$DIMSHO
 70
     1
  9
$DIMPOST
  1

  9
$DIMAPOST
  1

  9
$DIMALT
 70
     0
  9
$DIMALTD
 70
     2
  9
$DIMALTF
 40
25.4
  9
$DIMLFAC
 40
1.0
  9
$LUNITS
 70
     2
  9
$LUPREC
 70
     4
  9
$AXISMODE
 70
     0
  9
$AXISUNIT
 10
0.0
 20
0.0
  9
$SKETCHINC
 40
0.1
  9
$FILLETRAD
 40
0.0
  9
$AUNITS
 70
     0
  9
$AUPREC
 70
     0
  9
$MENU
  1
acad
  9
$ELEVATION
 40
0.0
  9
$THICKNESS
 40
0.0
  9
$VIEWDIR
 10
0.0
 20
0.0
 30
1.0
  9
$LIMCHECK
 70
     0
  9
$BLIPMODE
 70
     1
  9
$CHAMFERA
 40
0.0
  9
$CHAMFERB
 40
0.0
  9
$FASTZOOM
 70
     1
  9
$SKPOLY
 70
     0
  9
$TDCREATE
 40
0.000000000
  9
$TDUPDATE
 40
0.000000000
  9
$TDINDWG
 40
0.0000000000
  9
$TDUSRTIMER
 40
0.0000000000
  9
$USRTIMER
 70
     1
  9
$ANGBASE
 50
0.0
  9
$ANGDIR
 70
     0
  9
$PDMODE
 70
     0
  9
$PDSIZE
 40
0.0
  9
$PLINEWID
 40
0.0
  9
$COORDS
 70
     0
  9
$SPLFRAME
 70
     0
  9
$SPLINESEGS
 70
     8
  9
$ATTDIA
 70
     0
  9
$ATTREQ
 70
     1
  9
$USERI1
 70
     0
  9
$USERI2
 70
     0
  9
$USERI3
 70
     0
  9
$USERI4
 70
     0
  9
$USERI5
 70
     0
  9
$USERR1
 40
0.0
  9
$USERR2
 40
0.0
  9
$USERR3
 40
0.0
  9
$USERR4
 40
0.0
  9
$USERR5
 40
0.0
  0
ENDSEC
  0
SECTION
  2
TABLES
  0
TABLE
  2
LTYPE
 70
     1
  0
LTYPE
  2
CONTINUOUS
 70
    64
  3
Solid line
 72
    65
 73
     0
 40
0.0
  0
ENDTAB
  0
TABLE
  2
LAYER
 70
     8
  0
LAYER
  2
0
 70
     0
 62
     7
  6
CONTINUOUS
  0
LAYER
  2
TOPLAYER
 70
     0
 62
     1
  6
CONTINUOUS
  0
LAYER
  2
BOTTOMLAYER
 70
     0
 62
     5
  6
CONTINUOUS
  0
LAYER
  2
TOPOVERLAY
 70
     0
 62
     2
  6
CONTINUOUS
  0
LAYER
  2
TOPPASTE
 70
     0
 62
     8
  6
CONTINUOUS
  0
LAYER
  2
BOTTOMPASTE
 70
     0
 62
    16
  6
CONTINUOUS
  0
LAYER
  2
TOPSOLDER
 70
     0
 62
   216
  6
CONTINUOUS
  0
LAYER
  2
BOTTOMSOLDER
 70
     0
 62
     6
  6
CONTINUOUS
  0
ENDTAB
  0
TABLE
  2
STYLE
 70
     1
  0
STYLE
  2
STANDARD
 70
     0
 40
0.0
 41
1.0
 50
0.0
 71
     0
 42
0.0
  3
txt
  4

  0
ENDTAB
  0
TABLE
  2
VIEW
 70
     0
  0
ENDTAB
  0
ENDSEC
  0
SECTION
  2
BLOCKS
  0
BLOCK
  8
0
  2
CC1125_TR_4S_1
 70
     0
 10
0.0
 20
0.0
  0
POLYLINE
  8
TOPOVERLAY
 66
     1
 40
0.254
 41
0.254
  0
VERTEX
  8
TOPOVERLAY
 10
-0.051003
 20
-0.099974
  0
VERTEX
  8
TOPOVERLAY
 10
20.84898
 20
-0.099974
  0
SEQEND
  8
0
  0
POLYLINE
  8
TOPOVERLAY
 66
     1
 70
     1
 40
0.127
 41
0.127
  0
VERTEX
  8
TOPOVERLAY
 10
-0.114503
 20
-0.099974
 42
1.0
  0
VERTEX
  8
TOPOVERLAY
 10
0.012497
 20
-0.099974
 42
1.0
  0
SEQEND
  8
0
  0
POLYLINE
  8
TOPOVERLAY
 66
     1
 70
     1
 40
0.127
 41
0.127
  0
VERTEX
  8
TOPOVERLAY
 10
20.78548
 20
-0.099974
 42
1.0
  0
VERTEX
  8
TOPOVERLAY
 10
20.91248
 20
-0.099974
 42
1.0
  0
SEQEND
  8
0
  0
POLYLINE
  8
TOPOVERLAY
 66
     1
 40
0.254
 41
0.254
  0
VERTEX
  8
TOPOVERLAY
 10
20.84898
 20
-0.099974
  0
VERTEX
  8
TOPOVERLAY
 10
20.84898
 20
25.500025
  0
SEQEND
  8
0
  0
POLYLINE
  8
TOPOVERLAY
 66
     1
 70
     1
 40
0.127
 41
0.127
  0
VERTEX
  8
TOPOVERLAY
 10
20.78548
 20
-0.099974
 42
1.0
  0
VERTEX
  8
TOPOVERLAY
 10
20.91248
 20
-0.099974
 42
1.0
  0
SEQEND
  8
0
  0
POLYLINE
  8
TOPOVERLAY
 66
     1
 70
     1
 40
0.127
 41
0.127
  0
VERTEX
  8
TOPOVERLAY
 10
20.78548
 20
25.500025
 42
1.0
  0
VERTEX
  8
TOPOVERLAY
 10
20.91248
 20
25.500025
 42
1.0
  0
SEQEND
  8
0
  0
POLYLINE
  8
TOPOVERLAY
 66
     1
 40
0.254
 41
0.254
  0
VERTEX
  8
TOPOVERLAY
 10
-0.051003
 20
25.500025
  0
VERTEX
  8
TOPOVERLAY
 10
20.84898
 20
25.500025
  0
SEQEND
  8
0
  0
POLYLINE
  8
TOPOVERLAY
 66
     1
 70
     1
 40
0.127
 41
0.127
  0
VERTEX
  8
TOPOVERLAY
 10
-0.114503
 20
25.500025
 42
1.0
  0
VERTEX
  8
TOPOVERLAY
 10
0.012497
 20
25.500025
 42
1.0
  0
SEQEND
  8
0
  0
POLYLINE
  8
TOPOVERLAY
 66
     1
 70
     1
 40
0.127
 41
0.127
  0
VERTEX
  8
TOPOVERLAY
 10
20.78548
 20
25.500025
 42
1.0
  0
VERTEX
  8
TOPOVERLAY
 10
20.91248
 20
25.500025
 42
1.0
  0
SEQEND
  8
0
  0
POLYLINE
  8
TOPOVERLAY
 66
     1
 40
0.254
 41
0.254
  0
VERTEX
  8
TOPOVERLAY
 10
-0.051003
 20
-0.099974
  0
VERTEX
  8
TOPOVERLAY
 10
-0.051003
 20
25.500025
  0
SEQEND
  8
0
  0
POLYLINE
  8
TOPOVERLAY
 66
     1
 70
     1
 40
0.127
 41
0.127
  0
VERTEX
  8
TOPOVERLAY
 10
-0.114503
 20
-0.099974
 42
1.0
  0
VERTEX
  8
TOPOVERLAY
 10
0.012497
 20
-0.099974
 42
1.0
  0
SEQEND
  8
0
  0
POLYLINE
  8
TOPOVERLAY
 66
     1
 70
     1
 40
0.127
 41
0.127
  0
VERTEX
  8
TOPOVERLAY
 10
-0.114503
 20
25.500025
 42
1.0
  0
VERTEX
  8
TOPOVERLAY
 10
0.012497
 20
25.500025
 42
1.0
  0
SEQEND
  8
0
  0
SOLID
  8
TOPLAYER
 10
2.13506
 20
-1.066955
 11
2.13506
 21
0.933046
 12
0.635064
 22
-1.066955
 13
0.635064
 23
0.933046
  0
SOLID
  8
TOPPASTE
 10
2.13506
 20
-1.066955
 11
2.13506
 21
0.933046
 12
0.635064
 22
-1.066955
 13
0.635064
 23
0.933046
  0
SOLID
  8
TOPSOLDER
 10
2.23666
 20
-1.168555
 11
2.23666
 21
1.034646
 12
0.533463
 22
-1.168555
 13
0.533463
 23
1.034646
  0
SOLID
  8
TOPLAYER
 10
4.135057
 20
-1.066955
 11
4.135057
 21
0.933046
 12
2.635059
 22
-1.066955
 13
2.635059
 23
0.933046
  0
SOLID
  8
TOPPASTE
 10
4.135057
 20
-1.066955
 11
4.135057
 21
0.933046
 12
2.635059
 22
-1.066955
 13
2.635059
 23
0.933046
  0
SOLID
  8
TOPSOLDER
 10
4.236656
 20
-1.168555
 11
4.236656
 21
1.034646
 12
2.533459
 22
-1.168555
 13
2.533459
 23
1.034646
  0
SOLID
  8
TOPLAYER
 10
6.135103
 20
-1.066955
 11
6.135103
 21
0.933046
 12
4.635106
 22
-1.066955
 13
4.635106
 23
0.933046
  0
SOLID
  8
TOPPASTE
 10
6.135103
 20
-1.066955
 11
6.135103
 21
0.933046
 12
4.635106
 22
-1.066955
 13
4.635106
 23
0.933046
  0
SOLID
  8
TOPSOLDER
 10
6.236703
 20
-1.168555
 11
6.236703
 21
1.034646
 12
4.533506
 22
-1.168555
 13
4.533506
 23
1.034646
  0
SOLID
  8
TOPLAYER
 10
8.135099
 20
-1.066955
 11
8.135099
 21
0.933046
 12
6.635102
 22
-1.066955
 13
6.635102
 23
0.933046
  0
SOLID
  8
TOPPASTE
 10
8.135099
 20
-1.066955
 11
8.135099
 21
0.933046
 12
6.635102
 22
-1.066955
 13
6.635102
 23
0.933046
  0
SOLID
  8
TOPSOLDER
 10
8.236699
 20
-1.168555
 11
8.236699
 21
1.034646
 12
6.533502
 22
-1.168555
 13
6.533502
 23
1.034646
  0
SOLID
  8
TOPLAYER
 10
10.135095
 20
-1.066955
 11
10.135095
 21
0.933046
 12
8.635098
 22
-1.066955
 13
8.635098
 23
0.933046
  0
SOLID
  8
TOPPASTE
 10
10.135095
 20
-1.066955
 11
10.135095
 21
0.933046
 12
8.635098
 22
-1.066955
 13
8.635098
 23
0.933046
  0
SOLID
  8
TOPSOLDER
 10
10.236695
 20
-1.168555
 11
10.236695
 21
1.034646
 12
8.533498
 22
-1.168555
 13
8.533498
 23
1.034646
  0
SOLID
  8
TOPLAYER
 10
12.135091
 20
-1.066955
 11
12.135091
 21
0.933046
 12
10.635094
 22
-1.066955
 13
10.635094
 23
0.933046
  0
SOLID
  8
TOPPASTE
 10
12.135091
 20
-1.066955
 11
12.135091
 21
0.933046
 12
10.635094
 22
-1.066955
 13
10.635094
 23
0.933046
  0
SOLID
  8
TOPSOLDER
 10
12.236691
 20
-1.168555
 11
12.236691
 21
1.034646
 12
10.533494
 22
-1.168555
 13
10.533494
 23
1.034646
  0
SOLID
  8
TOPLAYER
 10
14.135087
 20
-1.066955
 11
14.135087
 21
0.933046
 12
12.63509
 22
-1.066955
 13
12.63509
 23
0.933046
  0
SOLID
  8
TOPPASTE
 10
14.135087
 20
-1.066955
 11
14.135087
 21
0.933046
 12
12.63509
 22
-1.066955
 13
12.63509
 23
0.933046
  0
SOLID
  8
TOPSOLDER
 10
14.236687
 20
-1.168555
 11
14.236687
 21
1.034646
 12
12.53349
 22
-1.168555
 13
12.53349
 23
1.034646
  0
SOLID
  8
TOPLAYER
 10
16.135083
 20
-1.066955
 11
16.135083
 21
0.933046
 12
14.635086
 22
-1.066955
 13
14.635086
 23
0.933046
  0
SOLID
  8
TOPPASTE
 10
16.135083
 20
-1.066955
 11
16.135083
 21
0.933046
 12
14.635086
 22
-1.066955
 13
14.635086
 23
0.933046
  0
SOLID
  8
TOPSOLDER
 10
16.236683
 20
-1.168555
 11
16.236683
 21
1.034646
 12
14.533486
 22
-1.168555
 13
14.533486
 23
1.034646
  0
SOLID
  8
TOPLAYER
 10
18.135079
 20
-1.066955
 11
18.135079
 21
0.933046
 12
16.635082
 22
-1.066955
 13
16.635082
 23
0.933046
  0
SOLID
  8
TOPPASTE
 10
18.135079
 20
-1.066955
 11
18.135079
 21
0.933046
 12
16.635082
 22
-1.066955
 13
16.635082
 23
0.933046
  0
SOLID
  8
TOPSOLDER
 10
18.236679
 20
-1.168555
 11
18.236679
 21
1.034646
 12
16.533482
 22
-1.168555
 13
16.533482
 23
1.034646
  0
SOLID
  8
TOPLAYER
 10
20.135075
 20
-1.066955
 11
20.135075
 21
0.933046
 12
18.635078
 22
-1.066955
 13
18.635078
 23
0.933046
  0
SOLID
  8
TOPPASTE
 10
20.135075
 20
-1.066955
 11
20.135075
 21
0.933046
 12
18.635078
 22
-1.066955
 13
18.635078
 23
0.933046
  0
SOLID
  8
TOPSOLDER
 10
20.236675
 20
-1.168555
 11
20.236675
 21
1.034646
 12
18.533478
 22
-1.168555
 13
18.533478
 23
1.034646
  0
SOLID
  8
TOPLAYER
 10
17.350994
 20
24.399999
 11
17.350994
 21
26.400001
 12
15.826994
 22
24.399999
 13
15.826994
 23
26.400001
  0
SOLID
  8
TOPPASTE
 10
17.350994
 20
24.399999
 11
17.350994
 21
26.400001
 12
15.826994
 22
24.399999
 13
15.826994
 23
26.400001
  0
SOLID
  8
TOPSOLDER
 10
17.452594
 20
24.298399
 11
17.452594
 21
26.501601
 12
15.725394
 22
24.298399
 13
15.725394
 23
26.501601
  0
SOLID
  8
TOPLAYER
 10
14.351
 20
24.399999
 11
14.351
 21
26.400001
 12
12.827
 22
24.399999
 13
12.827
 23
26.400001
  0
SOLID
  8
TOPPASTE
 10
14.351
 20
24.399999
 11
14.351
 21
26.400001
 12
12.827
 22
24.399999
 13
12.827
 23
26.400001
  0
SOLID
  8
TOPSOLDER
 10
14.4526
 20
24.298399
 11
14.4526
 21
26.501601
 12
12.7254
 22
24.298399
 13
12.7254
 23
26.501601
  0
SOLID
  8
TOPLAYER
 10
11.351006
 20
24.399999
 11
11.351006
 21
26.400001
 12
9.827006
 22
24.399999
 13
9.827006
 23
26.400001
  0
SOLID
  8
TOPPASTE
 10
11.351006
 20
24.399999
 11
11.351006
 21
26.400001
 12
9.827006
 22
24.399999
 13
9.827006
 23
26.400001
  0
SOLID
  8
TOPSOLDER
 10
11.452606
 20
24.298399
 11
11.452606
 21
26.501601
 12
9.725406
 22
24.298399
 13
9.725406
 23
26.501601
  0
SOLID
  8
TOPLAYER
 10
6.552997
 20
24.500025
 11
6.552997
 21
26.500026
 12
5.028997
 22
24.500025
 13
5.028997
 23
26.500026
  0
SOLID
  8
TOPPASTE
 10
6.552997
 20
24.500025
 11
6.552997
 21
26.500026
 12
5.028997
 22
24.500025
 13
5.028997
 23
26.500026
  0
SOLID
  8
TOPSOLDER
 10
6.654597
 20
24.398425
 11
6.654597
 21
26.601626
 12
4.927397
 22
24.398425
 13
4.927397
 23
26.601626
  0
ENDBLK
  8
0
  0
ENDSEC
  0
SECTION
  2
ENTITIES
  0
INSERT
  8
0
  2
CC1125_TR_4S_1
 10
83.312
 20
58.42
 50
360.0
  0
ENDSEC
  0
EOF
